<svg xmlns="http://www.w3.org/2000/svg" xmlns:xlink="http://www.w3.org/1999/xlink" width="359.39" height="468.96" viewBox="0 0 359.39 468.96"><defs><linearGradient id="Áåçûìÿííûé_ãðàäèåíò_40" x1="172.52" y1="454.47" x2="172.52" y2="369.32" gradientUnits="userSpaceOnUse"><stop offset="0" stop-color="#ffaf97"/><stop offset="1" stop-color="#f9b9a2"/></linearGradient><linearGradient id="Áåçûìÿííûé_ãðàäèåíò_18" x1="288.08" y1="278.67" x2="330.96" y2="278.67" gradientUnits="userSpaceOnUse"><stop offset="0.26" stop-color="#ffaf97"/><stop offset="0.53" stop-color="#fcb59d"/><stop offset="1" stop-color="#f9b9a2"/></linearGradient><linearGradient id="Áåçûìÿííûé_ãðàäèåíò_19" x1="28.43" y1="278.67" x2="71.31" y2="278.67" gradientUnits="userSpaceOnUse"><stop offset="0" stop-color="#f9b9a2"/><stop offset="0.72" stop-color="#ffaf97"/></linearGradient><linearGradient id="Áåçûìÿííûé_ãðàäèåíò_13" x1="179.69" y1="135.92" x2="179.69" y2="348.57" gradientUnits="userSpaceOnUse"><stop offset="0.01" stop-color="#ffaf97"/><stop offset="0.32" stop-color="#fcb39c"/><stop offset="1" stop-color="#f9b9a2"/></linearGradient></defs><g style="isolation:isolate"><g id="Capa_1" data-name="Capa 1"><path d="M173.58,454.47c-19.11,0-64.47-23.06-61.51-56,1.83-.18,35.17-9.74,35.17-17.14v-3c0-5,0-9.09,0-9.09H201v12.05a12.72,12.72,0,0,0,.26,2.62,3.15,3.15,0,0,0,.22.63c2.9,6.07,29.85,13.92,31,14C238.77,431.41,192.78,454.47,173.58,454.47Z" fill="url(#Áåçûìÿííûé_ãðàäèåíò_40)"/><path d="M201.49,384.62c-11.86,3.08-24.9,5-35.56,2.86a58.76,58.76,0,0,1-18.69-7.8v-1.27c0-5,0-9.09,0-9.09H201v12.05a12.72,12.72,0,0,0,.26,2.62A3.15,3.15,0,0,0,201.49,384.62Z" fill="#ea9688"/><path d="M291.7,277.26c-5.74,19.78-5.07,30.06,5,33s25.76-2.61,31.5-22.38,2.21-38.18-7.87-41.11S297.44,257.49,291.7,277.26Z" fill="url(#Áåçûìÿííûé_ãðàäèåíò_18)"/><path d="M304.09,271.47c3.83-6,8.16-11.62,13.81-15.24a7,7,0,0,1,3.88-1.32c6,.18,4.12,10.4,3.61,14.56a148.11,148.11,0,0,1-4.71,22.41l0,.11c.67-3.29,1.18-6.66,1.57-10a81.12,81.12,0,0,0,.6-8.55c0-2,.26-4.09-.39-6s-2.21-3.13-3.91-2.59c-5.17,1.65-1.14,18.7-1.45,22s-1.68,7.09-2.33,10.4c-.16.82-.4,1.76-1.08,2a1.33,1.33,0,0,1-1.4-.4,4.58,4.58,0,0,1-.93-2.69c-.68-5.32-1.2-10.71-2.16-16C308.56,276.91,308,271.14,304.09,271.47Z" fill="#ea9688"/><path d="M288.83,302.61a19.39,19.39,0,0,1,2.29,0c4.69.22,9.68,2,12.57,4.81a8.22,8.22,0,0,1,2.11,3.23,20.37,20.37,0,0,1-9.09-.38A10.65,10.65,0,0,1,288.83,302.61Z" fill="#ea9688" opacity="0.45"/><path d="M67.69,277.26c5.74,19.78,5.07,30.06-5,33s-25.75-2.61-31.49-22.38S29,249.68,39.05,246.75,62,257.49,67.69,277.26Z" fill="url(#Áåçûìÿííûé_ãðàäèåíò_19)"/><path d="M55.3,271.47c-3.83-6-8.16-11.62-13.82-15.24a6.94,6.94,0,0,0-3.87-1.32c-5.95.18-4.12,10.4-3.62,14.56a149.36,149.36,0,0,0,4.72,22.41l0,.11c-.68-3.29-1.18-6.66-1.57-10a78.53,78.53,0,0,1-.6-8.55c0-2-.26-4.09.39-6s2.21-3.13,3.91-2.59c5.17,1.65,1.14,18.7,1.45,22s1.67,7.09,2.32,10.4c.16.82.41,1.76,1.09,2a1.33,1.33,0,0,0,1.4-.4,4.65,4.65,0,0,0,.93-2.69c.68-5.32,1.19-10.71,2.16-16C50.82,276.91,51.36,271.14,55.3,271.47Z" fill="#ea9688"/><path d="M70.56,302.61a19.56,19.56,0,0,0-2.3,0c-4.68.22-9.67,2-12.57,4.81a8.44,8.44,0,0,0-2.11,3.23,20.36,20.36,0,0,0,9.09-.38A10.66,10.66,0,0,0,70.56,302.61Z" fill="#ea9688" opacity="0.45"/><path d="M197.51,104.16H161.88c-100.82,5.93-123,127.58-106.17,180,1.42,4.42,4.14,8.29,4.58,12.91,1.48,15.54,10.64,48.62,60.21,64.57l24.28,7.08a124.65,124.65,0,0,0,69.83,0l24.28-7.08c49.56-15.95,58.72-49,60.2-64.57.45-4.62,3.17-8.49,4.59-12.91C320.49,231.74,298.33,110.09,197.51,104.16Z" fill="url(#Áåçûìÿííûé_ãðàäèåíò_13)"/><path d="M120.5,361.62l24.28,7.08a124.65,124.65,0,0,0,69.83,0l24.28-7.08c37.86-12.18,52.14-34.36,57.44-51.08a140.37,140.37,0,0,1-14.4,18.65c-22.61,24.66-56.19,35.86-89.32,31.21a88.06,88.06,0,0,0-25.8,0c-33.13,4.65-66.71-6.55-89.32-31.21a139.53,139.53,0,0,1-14.43-18.66C68.35,327.26,82.63,349.44,120.5,361.62Z" fill="#ea9688" opacity="0.45"/><path d="M198.57,295.6a6.81,6.81,0,0,1,5.66,6.45S206,295.07,198.57,295.6Z" fill="#ea9688" opacity="0.35"/><path d="M189.31,286.91q-8.33-3.24-19.48-.54a1.72,1.72,0,0,1-1.76-2.73c2.83-3.63,7.47-8.34,12.4-8.05,4.66.28,8.54,5,10.95,8.83A1.72,1.72,0,0,1,189.31,286.91Z" fill="#ffd4c7" opacity="0.55"/><path d="M193,296.54c-5.93-4.91-7.95-5.86-13.2-5.86s-7.28.81-13.31,5.6c-14.75,7.21-2.17,10.33-2.17,10.33s7.3.76,10,.06a6.32,6.32,0,0,1,3.65.52,4.55,4.55,0,0,0,3.29,0,6.31,6.31,0,0,1,3.66-.45c2.71.76,10,.14,10,.14S207.62,304,193,296.54Z" fill="#f19f8f"/><path d="M165.38,306.77s4.15-6.91,9.29-.32c0,0-2.9-1.3-4.14.55C170.53,307,167.52,308.06,165.38,306.77Z" fill="#b7796a"/><path d="M194,307s-4-7-9.29-.49c0,0,2.93-1.25,4.14.63C188.86,307.18,191.84,308.3,194,307Z" fill="#b7796a"/><path d="M154.46,253.58s.79,29.66-32.34,31.84c-29.85,2-40.23-20.65-41.56-23.61Z" fill="#ed8a82" opacity="0.65"/><path d="M154.52,248.5s-1-50.78-36.17-50.14-39.88,38.56-39.88,38.56Z" fill="#e2817d" opacity="0.5"/><path d="M154.52,254.94c0,10.24-15.49,27.91-38.51,27.91S77.85,267.43,77.85,248.5c0-13.78,15.24-36.38,38.16-34.19C138.27,216.43,154.52,242.22,154.52,254.94Z" fill="#fff5f8"/><path d="M116,214.31c20.34,1.93,35.66,23.63,38.15,37.07a13,13,0,0,0,.36-2.88c0-12.72-16.25-38.51-38.51-40.63-22.92-2.18-38.16,20.42-38.16,34.2a33.4,33.4,0,0,0,.2,3.63C79.88,231.88,94.58,212.27,116,214.31Z" fill="#663846" style="mix-blend-mode:multiply"/><path d="M146.44,251.38a23.79,23.79,0,1,1-45.26-10.25l8.27,3.77-6.31-7.12a23.78,23.78,0,0,1,43.3,13.6Z" fill="#42a8cc"/><circle cx="122.65" cy="251.38" r="12.18" transform="translate(-86.86 66.07) rotate(-22.5)" fill="#575756" style="mix-blend-mode:multiply"/><path d="M204.93,253.58s-.79,29.66,32.34,31.84c29.85,2,40.23-20.65,41.56-23.61Z" fill="#ed8a82" opacity="0.65"/><path d="M204.87,248.5s.95-50.78,36.17-50.14,39.87,38.56,39.87,38.56Z" fill="#e2817d" opacity="0.5"/><path d="M204.87,254.94c0,10.24,15.48,27.91,38.51,27.91s38.15-15.42,38.15-34.35c0-13.78-15.23-36.38-38.15-34.19C221.12,216.43,204.87,242.22,204.87,254.94Z" fill="#fff5f8"/><path d="M243.38,214.31c-20.34,1.93-35.66,23.63-38.15,37.07a13,13,0,0,1-.36-2.88c0-12.72,16.25-38.51,38.51-40.63,22.92-2.18,38.15,20.42,38.15,34.2a36.14,36.14,0,0,1-.19,3.63C279.51,231.88,264.81,212.27,243.38,214.31Z" fill="#663846" style="mix-blend-mode:multiply"/><path d="M260.85,251.38a23.79,23.79,0,1,1-4.27-13.6l-6.31,7.12,8.27-3.77A23.74,23.74,0,0,1,260.85,251.38Z" fill="#42a8cc"/><circle cx="237.06" cy="251.38" r="12.18" transform="translate(-108.31 241.26) rotate(-45)" fill="#575756" style="mix-blend-mode:multiply"/><path d="M319,98.65c-16.2-19.07-95.41-91.21-226-65a7.13,7.13,0,0,0-5.06,10c2.57,5.44,8.33,13.07,21.11,21.6-13.72-.52-41.23.38-47.7,15,0,0-1.43,5.41,3.51,11.34C54.24,94.45,13.57,107,14.81,132.23c2.44,12.81,22.36,11.39,22.36,11.39s-30.7,35.77-19.31,54.07c0,0,4.28,4.95,13.29,3.2A83.54,83.54,0,0,0,41.5,246.36c3.67-.12,7.59,1.7,11.32,5-5.72-45.47,25-85.83,25-85.83,64.3.9,105.23-20.92,125.08-38.11-8.57,9.64-16.4,23.47,6.55,25.65,21.15,2,40.32-12,52.45-23.75-5.29,8.92-12.93,25.16-4,32.84,8.29,7.12,18,.38,23.76-5.16,27,33.39,27,92.62,27,92.62,3.12-2.25,6.31-3.42,9.34-3.25a89.07,89.07,0,0,0,8.81-25.88v0c24-27.69,7.67-67.24,7.67-67.24s8.15,3.39,10-5.2C346.34,134.52,319,98.65,319,98.65Z" fill="#471913"/><path d="M91.5,192.72a2,2,0,0,1-2.22-3.08c3.55-4.52,8.49-10.54,12-13.58,7.8-6.71,17.71-11.58,28.23-10.32A20.92,20.92,0,0,1,141,170.91a16.86,16.86,0,0,1,3.92,5.18.66.66,0,0,1,0,.11,4.75,4.75,0,0,1-4.1,6.31C131.15,183.37,110.24,185.89,91.5,192.72Z" fill="#471913"/><path d="M143,180.48s-4.5-12.31-24.56-12.7C118.4,167.78,134.23,169.54,143,180.48Z" fill="#471913" opacity="0.3" style="mix-blend-mode:screen"/><path d="M105.62,175.36s15.37-4.37,21.43-1c7.3,4.08,10,6.71,10,6.71s-8.32-4.7-16.49-5.72C115,174.67,105.62,175.36,105.62,175.36Z" fill="#471913" opacity="0.3" style="mix-blend-mode:screen"/><path d="M105,181.73a12.79,12.79,0,0,0,1.89-.86c.67-.29,1.34-.57,2-.83a30.24,30.24,0,0,1,4.16-1.27,16.58,16.58,0,0,1,8.25.15,17,17,0,0,1,3.36,1.4,7.31,7.31,0,0,1,2.68,2.08s-6.27-2.47-12-2.31A67.65,67.65,0,0,0,105,181.73Z" fill="#471913" opacity="0.3" style="mix-blend-mode:screen"/><path d="M272.66,192.72a2,2,0,0,0,2.22-3.08c-3.55-4.52-8.49-10.54-12-13.58-7.81-6.71-17.71-11.58-28.23-10.32a20.92,20.92,0,0,0-11.45,5.17,16.71,16.71,0,0,0-3.92,5.18l0,.11a4.76,4.76,0,0,0,4.11,6.31C233,183.37,253.92,185.89,272.66,192.72Z" fill="#471913"/><path d="M221.2,180.48s4.49-12.31,24.55-12.7C245.75,167.78,229.93,169.54,221.2,180.48Z" fill="#471913" opacity="0.3" style="mix-blend-mode:screen"/><path d="M258.54,175.36s-15.37-4.37-21.43-1c-7.3,4.08-10,6.71-10,6.71s8.32-4.7,16.49-5.72C249.16,174.67,258.54,175.36,258.54,175.36Z" fill="#471913" opacity="0.3" style="mix-blend-mode:screen"/><path d="M259.12,181.73a12.79,12.79,0,0,1-1.89-.86c-.67-.29-1.34-.57-2-.83a30.24,30.24,0,0,0-4.16-1.27,16.62,16.62,0,0,0-8.26.15,17.2,17.2,0,0,0-3.35,1.4,7.31,7.31,0,0,0-2.68,2.08s6.27-2.47,12-2.31A67.65,67.65,0,0,1,259.12,181.73Z" fill="#471913" opacity="0.3" style="mix-blend-mode:screen"/><path d="M284.65,70.3c-5.72,6.64-3.48-38.23-2.61-52.76a3.25,3.25,0,0,1,4.64-2.74C296.26,19.36,315.93,34.06,284.65,70.3Z" fill="#471913"/><path d="M284.43,71.92c-6.36-1.87,25-14.25,35.51-18.28a2.6,2.6,0,0,1,3.52,2.51C323.24,64.32,319,82.11,284.43,71.92Z" fill="#471913"/><path d="M207.36,310.53s11.3,2,9.23,13.83C216.59,324.36,215.09,314.22,207.36,310.53Z" fill="#ea9688" opacity="0.45"/><path d="M184.48,356.21a23.8,23.8,0,0,0,2.83-2,1.34,1.34,0,0,0-1-2.38,67.51,67.51,0,0,1-13.25-.1A1.34,1.34,0,0,0,172,354a15.54,15.54,0,0,0,3.79,2.56A9.2,9.2,0,0,0,184.48,356.21Z" fill="#ea9688" opacity="0.45"/><path d="M208.61,329.71a31.55,31.55,0,0,1-28.89,18.83h-.1a31.56,31.56,0,0,1-28.87-19,9.51,9.51,0,0,1,2.87-11.3l0,0a8.82,8.82,0,0,1,5.06-1.81l.51,0,41,.14h.51a8.89,8.89,0,0,1,4.91,1.75l0,0A9.49,9.49,0,0,1,208.61,329.71Z" fill="#af5f74" style="mix-blend-mode:multiply"/><path d="M205.65,318.27a38.79,38.79,0,0,1-52-.07,8.82,8.82,0,0,1,5.06-1.81l.51,0,41,.14h.51A8.89,8.89,0,0,1,205.65,318.27Z" fill="#fff5f8"/><path d="M197.18,343.28a31.48,31.48,0,0,1-17.46,5.26h-.1a31.47,31.47,0,0,1-17.4-5.29,12.76,12.76,0,0,1,11.63-7.48,12.59,12.59,0,0,1,5.84,1.41,12.62,12.62,0,0,1,5.84-1.41A12.77,12.77,0,0,1,197.18,343.28Z" fill="#ff7588"/><path d="M179.32,262.94a1,1,0,1,0,1-.89A1,1,0,0,0,179.32,262.94Z" fill="#ed8a82"/><path d="M177.15,273.15a1,1,0,1,0,1-.89A1,1,0,0,0,177.15,273.15Z" fill="#ed8a82"/><path d="M184.65,269.94a1.76,1.76,0,1,0,3.51.26,1.76,1.76,0,0,0-3.51-.26Z" fill="#ed8a82"/><circle cx="170.04" cy="268.31" r="1.76" transform="translate(-22.56 15.71) rotate(-4.96)" fill="#ed8a82"/><path d="M225.25,295.38a.8.8,0,0,0,.74.86.8.8,0,1,0-.74-.86Z" fill="#ed8a82"/><path d="M243.16,290a.8.8,0,1,0,.86-.74A.81.81,0,0,0,243.16,290Z" fill="#ed8a82"/><path d="M253.11,308.17a.8.8,0,1,0,.85-.74A.78.78,0,0,0,253.11,308.17Z" fill="#ed8a82"/><path d="M266.49,298.54a.8.8,0,1,0,.86-.74A.8.8,0,0,0,266.49,298.54Z" fill="#ed8a82"/><path d="M237.64,307.32a1.46,1.46,0,1,0,1.57-1.35A1.46,1.46,0,0,0,237.64,307.32Z" fill="#ed8a82"/><path d="M260.13,287.67a1.46,1.46,0,1,0,1.57-1.35A1.46,1.46,0,0,0,260.13,287.67Z" fill="#ed8a82"/><path d="M134.14,295.38a.8.8,0,0,1-1.6.12.8.8,0,0,1,1.6-.12Z" fill="#ed8a82"/><path d="M116.22,290a.8.8,0,1,1-.85-.74A.8.8,0,0,1,116.22,290Z" fill="#ed8a82"/><path d="M106.28,308.17a.8.8,0,1,1-.86-.74A.8.8,0,0,1,106.28,308.17Z" fill="#ed8a82"/><path d="M92.89,298.54a.8.8,0,1,1-.85-.74A.8.8,0,0,1,92.89,298.54Z" fill="#ed8a82"/><path d="M121.75,307.32a1.46,1.46,0,1,1-1.57-1.35A1.46,1.46,0,0,1,121.75,307.32Z" fill="#ed8a82"/><path d="M99.26,287.67a1.46,1.46,0,1,1-1.57-1.35A1.46,1.46,0,0,1,99.26,287.67Z" fill="#ed8a82"/></g></g></svg>