<?xml version="1.0" encoding="UTF-8" standalone="no"?>
<svg
   version="1.1"
   width="382"
   height="303"
   id="svg21"
   sodipodi:docname="test.svg"
   xmlns:inkscape="http://www.inkscape.org/namespaces/inkscape"
   xmlns:sodipodi="http://sodipodi.sourceforge.net/DTD/sodipodi-0.dtd"
   xmlns="http://www.w3.org/2000/svg"
   xmlns:svg="http://www.w3.org/2000/svg">
  <defs
     id="defs21" />
  <sodipodi:namedview
     id="namedview21"
     pagecolor="#ffffff"
     bordercolor="#000000"
     borderopacity="0.25"
     inkscape:showpageshadow="2"
     inkscape:pageopacity="0.0"
     inkscape:pagecheckerboard="0"
     inkscape:deskcolor="#d1d1d1" />
  <path
      fill="#dadadada"
     id="path21"
     transform="translate(27,255)"
     d="M 0,0 C 0.66,0.33 1.32,0.66 2,1 -1.465,3.97 -1.465,3.97 -5,7 -5,6.01 -5,5.02 -5,4 -2.5,1.8125 -2.5,1.8125 0,0 Z m 263,-49 c -0.24219,1.914063 -0.24219,1.914063 -1,4 -1.82031,0.835938 -1.82031,0.835938 -4.125,1.375 -7.74411,2.295006 -12.01149,7.338052 -16.41797,13.890625 -1.67901,1.998614 -3.02873,2.80797 -5.45703,3.734375 -3.25,0.125 -3.25,0.125 -6,0 -0.66,-1.32 -1.32,-2.64 -2,-4 1.03125,0.0825 2.0625,0.165 3.125,0.25 4.68093,-0.301996 6.31968,-1.224194 9.875,-4.25 1.59714,-1.988275 3.08557,-4.032215 4.57031,-6.105469 C 249.84225,-45.766364 255.92351,-49 263,-49 Z m -197,0 c 6.809804,0.425613 11.864511,2.776188 16.664062,7.710938 1.002609,1.177422 1.987701,2.370025 2.953125,3.578125 1.95996,2.425034 4.147695,4.539679 6.382813,6.710937 0.33,0.33 0.66,0.66 1,1 2.670589,0.141152 5.324322,0.04247 8,0 -0.66,1.32 -1.32,2.64 -2,4 -4.276961,0.427696 -6.412736,0.383519 -10.0625,-2 C 86.632961,-30.145605 84.836145,-32.510974 83,-35.0625 78.410256,-41.37637 73.431748,-43.462397 66,-45 c 0,-1.32 0,-2.64 0,-4 z m 196,-23 c 0.99,0.33 1.98,0.66 3,1 0,3.3 0,6.6 0,10 -7.45459,2.521407 -13.51302,4.194929 -21.4375,4.1875 -0.79535,-8.1e-5 -1.5907,-1.61e-4 -2.41016,-2.44e-4 C 225.06742,-56.966288 225.06742,-56.966288 219,-60 c -1.37098,-3.564544 -1.07243,-7.23356 -1,-11 0.99,0 1.98,0 3,0 0.45375,0.474375 0.9075,0.94875 1.375,1.4375 3.25589,3.130659 8.00341,2.690317 12.30078,2.695313 1.07572,0.0013 2.15145,0.0026 3.25977,0.0039 1.11439,-0.0039 2.22879,-0.0077 3.37695,-0.01172 1.10279,0.0039 2.20559,0.0077 3.3418,0.01172 5.87764,-0.007 11.5346,-0.244881 17.3457,-1.136719 0,-1.32 0,-2.64 0,-4 z m -196,0 c 0.835312,0.959063 0.835312,0.959063 1.6875,1.9375 3.641708,3.24801 7.528432,3.188894 12.261719,3.195313 1.397021,0.0019 1.397021,0.0019 2.822265,0.0039 0.962286,-0.0039 1.924571,-0.0077 2.916016,-0.01172 0.942949,0.0039 1.885898,0.0077 2.857422,0.01172 C 94.753936,-66.871816 100.83552,-67.261708 107,-68 c 0.33,-0.99 0.66,-1.98 1,-3 0.99,0 1.98,0 3,0 -0.33,3.63 -0.66,7.26 -1,11 -14.715697,4.299543 -31.293871,4.902043 -46,0 0,-3.63 0,-7.26 0,-11 0.66,-0.33 1.32,-0.66 2,-1 z M -2,5.8125 C 1.9158474,6.4678381 3.9316389,8.5528105 6.75,11.25 14.880615,18.987594 24.203809,21.710836 35,24 c 0.748945,0.17918 1.497891,0.358359 2.269531,0.542969 3.997197,0.669058 7.998522,0.82481 12.042969,1.019531 1.253936,0.06478 1.253936,0.06478 2.533203,0.130859 C 53.896969,25.798853 55.948465,25.899873 58,26 57.67,26.66 57.34,27.32 57,28 37.980157,31.89442 14.09812,29.500365 -2.921875,19.917969 -5.2889543,18.294674 -6.8239677,16.830552 -7.4296875,13.972656 -7.5,11.8125 -7.5,11.8125 -7,8 -5,6 -5,6 -2,5.8125 Z M 335,7 c 1,1 1,1 1.3125,4.25 C 335.94388,15.67348 334.99759,16.828788 332,20 316.43714,29.700501 291.50851,31.863469 273.88672,27.976562 272.58896,27.659859 271.29244,27.337734 270,27 c 0,-0.33 0,-0.66 0,-1 1.19754,-0.03738 2.39508,-0.07477 3.62891,-0.113281 C 289.46034,25.294981 304.39426,23.882085 318,15 c 0.33,-0.99 0.66,-1.98 1,-3 2.25,-1.5 2.25,-1.5 5,-3 0.80437,-0.5775 1.60875,-1.155 2.4375,-1.75 C 329.72049,5.6485421 331.53231,6.0542656 335,7 Z M 59,-38 c 2.64,0 5.28,0 8,0 0.757812,2.1875 0.757812,2.1875 1,5 -1.695313,2.5 -1.695313,2.5 -4.125,5 -1.252969,1.307109 -1.252969,1.307109 -2.53125,2.640625 C 60.570312,-24.580781 59.796875,-23.802188 59,-23 c -0.86625,0.9075 -1.7325,1.815 -2.625,2.75 C 47.387208,-11.73525 41.859849,-8.6580937 29.207031,-8.6992188 26.220312,-8.9793373 24.513331,-9.4346252 22,-11 c 3.549701,-3.236492 6.108161,-5 11,-5 2.75,1.9375 2.75,1.9375 5,4 0.66,0 1.32,0 2,0 -1.134994,-3.291482 -1.992834,-3.995987 -5.125,-5.75 -0.94875,-0.4125 -1.8975,-0.825 -2.875,-1.25 1.125,-1.5 1.125,-1.5 3,-3 4.077944,-0.424786 5.530761,-0.312826 9,2 0,0.66 0,1.32 0,2 0.99,-0.33 1.98,-0.66 3,-1 -1.490977,-3.795213 -3.757008,-5.610427 -7,-8 2,-2 2,-2 4.9375,-2.3125 3.41331,0.348297 3.946758,0.79376 6.0625,3.3125 0.99,0.33 1.98,0.66 3,1 -1.011764,-3.403207 -1.648436,-4.757253 -4.625,-6.8125 C 48.59125,-32.204375 47.8075,-32.59625 47,-33 c 1.774896,-2.241974 2.621755,-2.943263 5.5,-3.375 2.945419,0.441813 3.58214,1.195614 5.5,3.375 0.99,0.33 1.98,0.66 3,1 -0.66,-1.98 -1.32,-3.96 -2,-6 z m 204.84766,-0.09766 c 2.05078,0.03255 4.10156,0.0651 6.15234,0.09766 -0.66,1.98 -1.32,3.96 -2,6 3.18234,-1.754544 3.18234,-1.754544 6,-4 2.375,-0.25 2.375,-0.25 5,0 1.8125,1.5 1.8125,1.5 3,3 -1.42313,0.86625 -1.42313,0.86625 -2.875,1.75 -2.88634,2.078166 -3.96596,3.004681 -5.125,6.25 1.32,0 2.64,0 4,0 0.33,-0.99 0.66,-1.98 1,-3 2.78863,-1.394315 4.92079,-1.256601 8,-1 0.99,1.485 0.99,1.485 2,3 -1.45406,0.897188 -1.45406,0.897188 -2.9375,1.8125 -3.29302,1.898775 -3.29302,1.898775 -4.0625,5.1875 2.49362,-1.203814 4.68143,-2.454287 7,-4 2.5625,0.1875 2.5625,0.1875 5,1 0.66,0.99 1.32,1.98 2,3 -1.45406,0.897188 -1.45406,0.897188 -2.9375,1.8125 -3.29302,1.898775 -3.29302,1.898775 -4.0625,5.1875 2.49362,-1.203814 4.68143,-2.454287 7,-4 4.13532,0.335297 7.37796,2.062631 11,4 -0.33,0.66 -0.66,1.32 -1,2 -6.22209,2.0740316 -14.33401,2.1133738 -20.63672,0.1992187 C 276.05683,-14.66286 268.63908,-23.041223 262,-31 c -0.33,-0.33 -0.66,-0.66 -1,-1 -0.125,-2.5 -0.125,-2.5 0,-5 1,-1 1,-1 2.84766,-1.097656 z M 264,-61 c 1.89005,3.780101 0.88935,7.828601 0.24609,11.878906 C 263,-46 263,-46 260.47266,-44.347656 c -2.1055,0.746082 -4.22661,1.449185 -6.35938,2.113281 C 248.97476,-40.197018 246.32035,-36.252511 243,-32 c -5.33728,5.787737 -5.33728,5.787737 -9.9375,6.375 C 230,-26 230,-26 228.3125,-28 c -3.15807,-7.218455 -5.2499,-14.333384 -7,-22 -0.22494,-0.965508 -0.44988,-1.931016 -0.68164,-2.925781 C 220.08245,-55.282789 219.53894,-57.640812 219,-60 c 0.87398,0.144375 1.74797,0.28875 2.64844,0.4375 C 235.96807,-57.401046 250.04171,-56.401976 264,-61 Z m -200,1 c 2.289375,0.33 4.57875,0.66 6.9375,1 11.851537,1.554219 23.411711,1.962065 35.0625,-1 2.23047,0.441406 2.23047,0.441406 4,1 -1.09341,4.211204 -2.20161,8.418377 -3.3125,12.625 -0.30873,1.189805 -0.61746,2.379609 -0.93555,3.605469 -0.30615,1.153711 -0.6123,2.307422 -0.92773,3.496094 -0.27755,1.057836 -0.5551,2.115673 -0.84107,3.205566 C 101.5852,-28.585197 101.5852,-28.585197 99,-26 94.701383,-25.49428 92.603684,-25.605757 88.9375,-28 86.632961,-30.145605 84.836145,-32.510974 83,-35.0625 78.410256,-41.37637 73.431748,-43.462397 66,-45 c -0.66,-4.95 -1.32,-9.9 -2,-15 z m 162,39 c 2.652,2.545916 5.09299,5.225469 7.5,8 0.60715,0.690937 1.2143,1.381875 1.83984,2.09375 1.26278,1.4499688 2.49905,2.9230809 3.72266,4.40625 1.93057,1.7283501 1.93057,1.7283501 4.875,2.0625 4.04113,-0.7422489 5.43087,-2.492266 8.0625,-5.5625 2.3182,-2.318202 2.94561,-2.420226 6.125,-2.625 6.07327,0.08751 10.47291,2.6867101 15.69214,5.4821777 15.5722,8.2445371 33.56317,9.9319015 50.87036,7.3928223 3.53509,-0.42849634 4.10028,-0.37126921 7.375,1.5 C 334,4 334,4 335,7 333.70062,6.87625 333.70062,6.87625 332.375,6.75 328.16504,7.0618491 326.43216,8.597486 323,11 302.50549,20.820285 275.40935,13.888612 255,7 238.25814,0.98919642 238.25814,0.98919642 231.17969,-3.1796875 228.63709,-4.6352767 226.84559,-5.5447064 224,-6 c -0.36902,-10.558087 -0.36902,-10.558087 2,-15 z m -124,0 c 2.66315,2.663152 2.94426,4.653441 3.09766,8.359375 -0.0116,0.788906 -0.0232,1.577812 -0.0352,2.390625 -0.009,0.7992187 -0.0181,1.5984375 -0.0273,2.421875 -0.0116,0.6032813 -0.0232,1.2065625 -0.0352,1.828125 -0.53625,0.2075391 -1.0725,0.4150781 -1.625,0.6289063 -4.670585,1.83597 -9.269854,3.7693896 -13.836426,5.85229487 C 75.579514,6.7950285 61.073709,11.253938 46,14 45.0925,14.185625 44.185,14.37125 43.25,14.5625 32.514522,16.00766 15.12475,17.716384 5.78125,11.53125 4.4336746,10.465258 3.1024855,9.3780392 1.7929687,8.265625 -0.79922398,6.4358419 -2.9357541,6.5403631 -6,7 -4.5988654,3.6139247 -3.1516666,1.8855188 0,0 2.4179688,-0.07421875 2.4179688,-0.07421875 5.1875,0.3125 26.781398,2.5869178 48.541146,-0.69409704 67,-13 c 4.412507,0.08171 6.412319,0.479101 9.75,3.4375 0.7425,0.845625 1.485,1.69125 2.25,2.5625 2.841903,2.2713634 2.841903,2.2713634 6.1875,2.125 C 92.988739,-7.177005 97.644349,-14.466524 102,-21 Z m 5.125,15 c 4.1949,4.4745575 4.38799,10.8136409 4.25391,16.695313 C 111,13 111,13 108.875,16 102.42124,20.489575 95.293577,20.588632 87.6875,21.3125 78.22313,22.293189 69.492609,23.862774 60.488281,26.914062 42.443755,32.531507 18.017547,29.901453 0.921875,22.050781 -2.3672287,20.25247 -4.5070192,18.886609 -7,16 -7.6267457,13.0429 -7.4038402,11.079281 -7,8 -6.34,7.34 -5.68,6.68 -5,6 0.27312027,6.1014062 2.426047,7.3597539 6.2617187,10.789063 16.19303,17.707504 36.728681,14.817612 48.0625,12.875 65.63121,9.0720171 83.061602,3.4593523 98.949219,-5.0195312 104.03827,-7.4525806 104.03827,-7.4525806 107.125,-6 Z M 224.74219,-6.6523437 C 229.15216,-5.1742776 233.19963,-3.42603 237.3125,-1.25 260.71004,10.763335 292.96376,19.354647 319,12 321.6314,10.563645 324.00329,8.9976363 326.4375,7.25 329.72049,5.6485421 331.53231,6.0542656 335,7 c 1,1 1,1 1.3125,4.25 -0.36862,4.42348 -1.31491,5.578788 -4.3125,8.75 -17.95781,11.193294 -44.59461,11.382182 -64.57813,6.949219 -1.81033,-0.502183 -3.61964,-1.022063 -5.38256,-1.671387 -7.6772,-2.826189 -15.43385,-3.347434 -23.53345,-4.094238 C 222.76558,19.588481 222.76558,19.588481 218,14 c -2.24594,-6.8875378 0.3318,-13.49449536 3,-20 2,-1 2,-1 3.74219,-0.6523437 z M 270,-236 c 0.11456,12.69396 -0.1176,25.31816 -0.79956,37.99438 -0.13958,2.59862 -0.27116,5.19755 -0.40161,7.79664 -0.43139,8.42064 -0.9157,16.82099 -1.79883,25.20898 -3.85394,0.6472 -7.70819,1.29251 -11.5625,1.9375 -1.62905,0.2736 -1.62905,0.2736 -3.29102,0.55273 -1.06025,0.17725 -2.1205,0.3545 -3.21289,0.53711 -0.96881,0.16235 -1.93762,0.32469 -2.93579,0.49195 -0.98927,0.15863 -1.97855,0.31727 -2.9978,0.48071 -1.12342,0.18305 -2.24684,0.36609 -3.4043,0.55469 -3.72822,0.46172 -7.30487,0.55855 -11.06054,0.54297 -1.01726,-0.002 -1.01726,-0.002 -2.05507,-0.004 -2.13925,-0.006 -4.27838,-0.0181 -6.41759,-0.0309 -1.46159,-0.005 -2.92318,-0.01 -4.38477,-0.0137 -3.55928,-0.011 -7.11849,-0.0282 -10.67773,-0.0488 -1.10364,-6.1888 -2.20622,-12.37778 -3.30811,-18.56689 -0.37411,-2.10063 -0.74845,-4.20122 -1.12304,-6.30176 -1.04915,-5.88361 -2.09442,-11.76786 -3.13172,-17.65357 -0.2694,-1.52706 -0.53978,-3.05396 -0.81176,-4.58056 -0.29857,-1.67855 -0.59122,-3.35814 -0.88318,-5.03784 -0.14841,-0.84595 -0.29681,-1.6919 -0.44971,-2.56348 -0.31276,-2.45508 -0.31166,-4.82345 -0.29248,-7.2959 9.33518,-1.82868 18.67094,-3.65434 28.00747,-5.47612 4.33512,-0.84599 8.67004,-1.69302 13.00449,-2.54243 4.18163,-0.81943 8.36377,-1.63612 12.5463,-2.4509 1.59701,-0.31161 3.19383,-0.62421 4.79044,-0.93781 2.23329,-0.43847 4.46722,-0.87344 6.70135,-1.30758 1.27241,-0.24871 2.54482,-0.49742 3.85579,-0.75367 C 267,-236 267,-236 270,-236 Z m -212,0 c 8.287689,0.74248 16.38107,2.33669 24.535156,3.94141 1.489232,0.29035 2.978527,0.58037 4.467881,0.8701 3.891828,0.75796 7.782799,1.52024 11.673599,2.28346 3.981624,0.78023 7.964054,1.55632 11.946414,2.33276 7.7931,1.52007 15.58531,3.0447 23.37695,4.57227 -1.11568,9.32062 -2.33424,18.5933 -3.94531,27.84375 -0.26211,1.53086 -0.26211,1.53086 -0.52951,3.09265 -0.5467,3.18846 -1.09833,6.37603 -1.65018,9.5636 -0.37663,2.19135 -0.75294,4.38276 -1.12891,6.57422 -0.91158,5.30925 -1.82719,10.61779 -2.74609,15.92578 -10.83554,0.12676 -21.49825,0.23322 -32.25,-1.3125 -0.997251,-0.1339 -1.994502,-0.2678 -3.021973,-0.40576 C 66.402471,-163.79876 66.402471,-163.79876 62,-166 c -0.859477,-4.50903 -1.176983,-8.99829 -1.388916,-13.57788 -0.05999,-1.26078 -0.119973,-2.52156 -0.181778,-3.82054 -0.06114,-1.35547 -0.122212,-2.71095 -0.183212,-4.06642 -0.06554,-1.40249 -0.131376,-2.80496 -0.197495,-4.20742 -0.172268,-3.6708 -0.340539,-7.34177 -0.50795,-11.0128 -0.17192,-3.75418 -0.347661,-7.50818 -0.523071,-11.26221 C 58.674668,-221.29801 58.335985,-228.64894 58,-236 Z m 13,191 c 6.823234,2.104028 10.705007,6.491917 15,12 2.569561,3.539901 2.569561,3.539901 6,6 2.332987,0.04022 4.667067,0.0432 7,0 0.99,-1.98 1.98,-3.96 3,-6 0.33,0 0.66,0 1,0 0.049,0.871406 0.098,1.742813 0.14844,2.640625 C 103.07759,-16.025716 103.07759,-16.025716 109,-4 c 2.12794,5.4878329 2.9624,11.1462 2,17 -3.0764,4.343159 -5.96698,5.658227 -11,7 -4.09279,0.553304 -8.201521,0.921259 -12.3125,1.3125 -9.46437,0.980689 -18.194891,2.550274 -27.199219,5.601562 C 42.443755,32.531507 18.017547,29.901453 0.921875,22.050781 -2.3672287,20.25247 -4.5070192,18.886609 -7,16 -7.9614627,12.024877 -7.5507221,9.0997548 -5.7265625,5.4570312 0.30721739,-3.1295017 12.649189,-7.7943198 22,-12 c 0.66,0 1.32,0 2,0 -0.495,-2.475 -0.495,-2.475 -1,-5 4.75,-2.875 4.75,-2.875 7,-4 0.268125,-0.61875 0.53625,-1.2375 0.8125,-1.875 1.544401,-2.763665 3.504628,-3.515277 6.1875,-5.125 0.33,-0.70125 0.66,-1.4025 1,-2.125 0.33,-0.61875 0.66,-1.2375 1,-1.875 2.625,-0.75 2.625,-0.75 5,-1 0.103125,-0.78375 0.20625,-1.5675 0.3125,-2.375 C 45,-38 45,-38 48,-40 c 1.392187,-0.433125 1.392187,-0.433125 2.8125,-0.875 3.295187,-0.961579 3.295187,-0.961579 5.875,-3.3125 C 61.603933,-46.877624 65.638737,-46.16848 71,-45 Z m 200,0 c 2.125,1.9375 2.125,1.9375 4,4 2.31406,0.730756 4.64829,1.401383 7,2 0.99,0.66 1.98,1.32 3,2 0,1.32 0,2.64 0,4 0.76312,0.06188 1.52625,0.12375 2.3125,0.1875 3.56837,1.078809 3.87994,2.649268 5.6875,5.8125 1.63496,1.051044 3.29884,2.059883 5,3 0.495,0.99 0.495,0.99 1,2 -0.33,0.66 -0.66,1.32 -1,2 0.76312,0.12375 1.52625,0.2475 2.3125,0.375 C 303,-19 303,-19 306,-17 c -0.33,1.65 -0.66,3.3 -1,5 0.81469,0.241055 1.62937,0.482109 2.46875,0.730469 4.22765,1.5198969 8.07074,3.4764856 12.03125,5.582031 0.73348,0.3783398 1.46695,0.7566797 2.22266,1.1464844 5.15041,2.7226266 10.14549,5.633946 13.65234,10.4160156 0.9464,3.2177458 0.97608,5.789712 0.625,9.125 -5.66142,8.479205 -15.98496,10.284137 -25.4375,12.3125 -15.7212,3.084227 -33.27684,3.58091 -48.52319,-2.034668 -7.6772,-2.826189 -15.43385,-3.347434 -23.53345,-4.094238 C 222.76558,19.588481 222.76558,19.588481 218,14 c -2.24594,-6.8875378 0.3318,-13.49449536 3,-20 0.99,-0.495 0.99,-0.495 2,-1 1.65264,-6.947215 2.12695,-13.890861 2,-21 0.5,-3 0.5,-3 1,-5 1.95216,1.952164 2.84827,3.532 4,6 4.73103,0.330072 7.27932,-0.0053 11,-3 1.83583,-2.238606 3.57556,-4.537541 5.32031,-6.847656 C 252.25142,-44.447754 261.64246,-47.847123 271,-45 Z m -1,-191 c 0.2768,16.67768 -0.53799,33.28287 -1.4135,49.93136 -0.20005,3.8264 -0.39399,7.65311 -0.58858,11.47979 -0.36791,7.21844 -0.74073,14.43662 -1.1156,21.6547 -0.55114,10.61573 -1.09571,21.2318 -1.63912,31.84793 -0.0399,0.78058 -0.0799,1.56116 -0.12108,2.36539 -0.0797,1.55607 -0.15928,3.11214 -0.23889,4.66821 -0.23245,4.53976 -0.46668,9.07943 -0.70248,13.61901 -0.14604,2.814679 -0.29108,5.629403 -0.43594,8.444139 -0.0993,1.922851 -0.19992,3.845635 -0.30058,5.768417 -0.0589,1.147537 -0.1178,2.295075 -0.17848,3.477386 -0.0516,0.994449 -0.10324,1.988897 -0.15643,3.013481 C 263.006,-77.149797 262.97997,-74.582101 263,-72 c 0.66,0.33 1.32,0.66 2,1 0.27733,8.551127 -0.47984,16.58482 -2,25 1.2375,0.0825 2.475,0.165 3.75,0.25 4.09737,0.495129 5.42083,1.738298 8.25,4.75 2.31406,0.730756 4.64829,1.401383 7,2 1.485,0.99 1.485,0.99 3,2 0,1.32 0,2.64 0,4 0.76312,0.06188 1.52625,0.12375 2.3125,0.1875 3.56837,1.078809 3.87994,2.649268 5.6875,5.8125 1.63496,1.051044 3.29884,2.059883 5,3 0.33,0.66 0.66,1.32 1,2 -0.33,0.66 -0.66,1.32 -1,2 1.14469,0.185625 1.14469,0.185625 2.3125,0.375 C 303,-19 303,-19 306,-17 c -0.33,1.65 -0.66,3.3 -1,5 0.81469,0.241055 1.62937,0.482109 2.46875,0.730469 4.22765,1.5198969 8.07074,3.4764856 12.03125,5.582031 0.73348,0.3783398 1.46695,0.7566797 2.22266,1.1464844 5.15041,2.7226266 10.14549,5.633946 13.65234,10.4160156 0.9464,3.2177458 0.97608,5.789712 0.625,9.125 -5.66142,8.479205 -15.98496,10.284137 -25.4375,12.3125 -15.7212,3.084227 -33.27684,3.58091 -48.52319,-2.034668 -7.6772,-2.826189 -15.43385,-3.347434 -23.53345,-4.094238 C 222.76558,19.588481 222.76558,19.588481 218,14 c -2.24594,-6.8875378 0.3318,-13.49449536 3,-20 0.66,-0.33 1.32,-0.66 2,-1 1.11705,-4.261325 1.52979,-8.626612 2,-13 0.12246,-1.049297 0.24492,-2.098594 0.37109,-3.179687 0.61101,-10.599086 -2.20578,-20.495765 -4.88061,-30.654297 -0.31655,-1.209786 -0.63309,-2.419571 -0.95923,-3.666016 -0.29326,-1.082812 -0.58652,-2.165625 -0.88867,-3.28125 C 217.94794,-64.260796 217.89052,-67.460841 218,-71 c 0.66,0 1.32,0 2,0 -2.37361,-13.868137 -4.74728,-27.736265 -7.121,-41.60438 -1.31835,-7.70222 -2.63666,-15.40445 -3.95492,-23.10668 -0.42773,-2.49903 -0.8555,-4.99804 -1.28331,-7.49705 -1.05007,-6.13396 -2.09959,-12.26801 -3.14791,-18.40227 -1.8028,-10.54551 -3.61052,-21.09 -5.44891,-31.62937 -0.42344,-2.43593 -0.8466,-4.87191 -1.26968,-7.30791 -0.37816,-2.16902 -0.76079,-4.33721 -1.14369,-6.50539 -0.21953,-1.26407 -0.43906,-2.52813 -0.66525,-3.83049 -0.18851,-1.07296 -0.37703,-2.14592 -0.57126,-3.25139 -0.36688,-2.66736 -0.47064,-5.17739 -0.39407,-7.86507 9.33518,-1.82868 18.67094,-3.65434 28.00747,-5.47612 4.33512,-0.84599 8.67004,-1.69302 13.00449,-2.54243 4.18163,-0.81943 8.36377,-1.63612 12.5463,-2.4509 1.59701,-0.31161 3.19383,-0.62421 4.79044,-0.93781 2.23329,-0.43847 4.46722,-0.87344 6.70135,-1.30758 1.27241,-0.24871 2.54482,-0.49742 3.85579,-0.75367 C 267,-236 267,-236 270,-236 Z m -212,0 c 5.547023,0.61634 10.743706,1.24592 16.172119,2.30688 0.654804,0.12695 1.309607,0.25389 1.984253,0.38468 2.126943,0.4132 4.252855,0.83146 6.378784,1.24985 1.489232,0.29035 2.978527,0.58037 4.467881,0.8701 3.891828,0.75796 7.782799,1.52024 11.673599,2.28346 3.981624,0.78023 7.964054,1.55632 11.946414,2.33276 7.7931,1.52007 15.58531,3.0447 23.37695,4.57227 -1.58825,15.06462 -4.28352,29.96121 -6.84716,44.88273 -0.64185,3.74043 -1.2796,7.48156 -1.91782,11.22262 -1.20478,7.05835 -2.41315,14.11609 -3.62286,21.1736 -1.37891,8.04569 -2.75373,16.09207 -4.12823,24.13851 C 114.66044,-104.05426 111.83192,-87.526841 109,-71 c 0.66,0 1.32,0 2,0 -0.0352,8.176939 -1.84692,15.372117 -4.0625,23.1875 C 103.27271,-34.576042 101.7799,-20.405012 106,-7 c 1.45703,1.6290649 1.45703,1.6290649 3,3 2.12794,5.4878329 2.9624,11.1462 2,17 -3.0764,4.343159 -5.96698,5.658227 -11,7 -4.09279,0.553304 -8.201521,0.921259 -12.3125,1.3125 -9.46437,0.980689 -18.194891,2.550274 -27.199219,5.601562 C 42.443755,32.531507 18.017547,29.901453 0.921875,22.050781 -2.3672288,20.25247 -4.5070192,18.886609 -7,16 -7.9614627,12.024877 -7.5507221,9.0997548 -5.7265625,5.4570312 0.30721739,-3.1295017 12.649189,-7.7943198 22,-12 c 0.66,0 1.32,0 2,0 -0.33,-1.65 -0.66,-3.3 -1,-5 4.75,-2.875 4.75,-2.875 7,-4 0.268125,-0.61875 0.53625,-1.2375 0.8125,-1.875 1.544401,-2.763665 3.504628,-3.515277 6.1875,-5.125 0.33,-0.70125 0.66,-1.4025 1,-2.125 0.33,-0.61875 0.66,-1.2375 1,-1.875 2.625,-0.75 2.625,-0.75 5,-1 0.103125,-0.78375 0.20625,-1.5675 0.3125,-2.375 C 45,-38 45,-38 48,-40 c 1.392187,-0.433125 1.392187,-0.433125 2.8125,-0.875 3.305574,-1.003292 3.305574,-1.003292 6.1875,-3.25 3.414698,-2.134186 5.072829,-2.038632 9,-1.875 -0.216562,-1.073145 -0.216562,-1.073145 -0.4375,-2.167969 C 64.130132,-55.857 63.773244,-63.189505 64,-71 c 0.66,-0.33 1.32,-0.66 2,-1 -2.64,-54.12 -5.28,-108.24 -8,-164 z" />
</svg>
